<svg version="1.1" xmlns="http://www.w3.org/2000/svg" viewBox="0 0 138.28324158846385 193.58293471787303" width="138.28324158846385" height="193.58293471787303"><!-- svg-source:excalidraw --><metadata></metadata><defs><style class="style-fonts">
      </style></defs><g transform="translate(93.83140132956851 128.4341140241362) rotate(0 16.255559648032943 27.57441034686842)" stroke="none"><path fill="#1e1e1e" d="M 1.02,-2.27 Q 1.02,-2.27 3.16,-1.13 5.30,-0.00 6.84,0.64 8.39,1.28 9.53,1.54 10.68,1.79 12.30,2.11 13.91,2.42 15.41,2.37 16.91,2.32 18.14,2.33 19.37,2.34 20.57,2.57 21.77,2.80 23.48,3.72 25.20,4.65 26.28,6.25 27.36,7.85 27.99,9.84 28.61,11.83 28.83,13.27 29.06,14.71 29.19,16.12 29.32,17.53 29.45,18.73 29.57,19.94 29.64,21.14 29.71,22.34 29.98,24.30 30.26,26.25 30.33,27.34 30.39,28.44 30.47,29.61 30.55,30.79 30.60,32.36 30.66,33.94 30.73,35.53 30.80,37.12 30.86,38.85 30.92,40.58 30.98,42.37 31.05,44.16 31.24,45.57 31.43,46.98 31.85,48.43 32.27,49.89 33.55,51.71 34.82,53.53 35.02,53.94 35.22,54.35 35.27,54.81 35.33,55.26 35.23,55.71 35.14,56.16 34.91,56.55 34.68,56.94 34.34,57.24 33.99,57.54 33.57,57.72 33.15,57.89 32.69,57.92 32.24,57.95 31.80,57.84 31.35,57.72 30.97,57.47 30.59,57.22 30.31,56.86 30.03,56.50 29.88,56.07 29.73,55.64 29.72,55.18 29.71,54.72 29.85,54.29 29.99,53.85 30.27,53.49 30.54,53.12 30.91,52.86 31.29,52.60 31.73,52.47 32.17,52.34 32.62,52.36 33.08,52.38 33.50,52.54 33.93,52.71 34.28,53.00 34.63,53.29 34.88,53.68 35.12,54.07 35.22,54.51 35.32,54.96 35.28,55.41 35.24,55.86 35.05,56.28 34.86,56.70 34.55,57.03 34.24,57.37 33.84,57.59 33.44,57.81 32.99,57.89 32.54,57.97 32.09,57.90 31.64,57.83 31.23,57.62 30.83,57.41 30.51,57.09 30.19,56.76 30.19,56.76 30.19,56.76 28.81,54.40 27.44,52.05 27.22,50.93 27.00,49.81 26.83,48.72 26.65,47.63 26.44,46.09 26.23,44.54 26.02,42.76 25.81,40.98 25.59,39.27 25.38,37.55 25.19,35.97 25.01,34.38 24.82,32.82 24.63,31.26 24.51,30.00 24.40,28.75 24.25,26.90 24.11,25.05 23.89,22.84 23.66,20.64 23.51,19.44 23.35,18.24 22.97,15.95 22.59,13.66 22.27,12.65 21.95,11.63 21.31,10.15 20.66,8.66 19.33,8.27 17.99,7.89 16.81,7.79 15.62,7.69 14.17,7.46 12.72,7.23 11.12,6.68 9.52,6.12 8.15,5.70 6.77,5.27 5.13,4.63 3.49,3.98 1.23,3.12 -1.02,2.27 -1.28,2.11 -1.54,1.95 -1.75,1.74 -1.96,1.53 -2.12,1.27 -2.27,1.01 -2.36,0.73 -2.45,0.44 -2.47,0.14 -2.48,-0.15 -2.43,-0.45 -2.37,-0.74 -2.25,-1.02 -2.13,-1.29 -1.94,-1.53 -1.75,-1.76 -1.52,-1.95 -1.28,-2.13 -1.01,-2.26 -0.73,-2.38 -0.44,-2.43 -0.14,-2.49 0.15,-2.47 0.45,-2.45 0.74,-2.36 1.02,-2.27 1.02,-2.27 L 1.02,-2.27 Z"></path></g><g transform="translate(58.039654972586504 122.19793066357755) rotate(0 1.3787205173433108 -5.0652817129848415)" stroke="none"><path fill="#1e1e1e" d="M -2.33,-1.08 Q -2.33,-1.08 -1.75,-2.32 -1.18,-3.56 -0.68,-4.55 -0.18,-5.53 -0.00,-7.83 0.17,-10.13 0.25,-10.59 0.32,-11.05 0.54,-11.47 0.76,-11.88 1.10,-12.20 1.44,-12.52 1.87,-12.71 2.29,-12.91 2.75,-12.96 3.22,-13.01 3.67,-12.90 4.13,-12.80 4.53,-12.56 4.93,-12.32 5.23,-11.96 5.53,-11.61 5.70,-11.17 5.87,-10.74 5.90,-10.27 5.92,-9.81 5.80,-9.36 5.67,-8.91 5.41,-8.52 5.14,-8.14 4.77,-7.85 4.40,-7.57 3.96,-7.42 3.51,-7.28 3.05,-7.28 2.58,-7.28 2.14,-7.43 1.70,-7.58 1.33,-7.86 0.95,-8.15 0.69,-8.53 0.43,-8.92 0.31,-9.37 0.19,-9.82 0.21,-10.29 0.24,-10.75 0.41,-11.19 0.59,-11.62 0.89,-11.97 1.19,-12.33 1.59,-12.57 1.99,-12.81 2.45,-12.91 2.91,-13.01 3.37,-12.96 3.83,-12.90 4.26,-12.71 4.68,-12.51 5.02,-12.19 5.36,-11.86 5.57,-11.45 5.79,-11.04 5.87,-10.58 5.94,-10.12 5.94,-10.12 5.94,-10.12 5.88,-8.43 5.81,-6.74 5.49,-5.58 5.16,-4.42 4.32,-2.90 3.49,-1.39 2.91,-0.15 2.33,1.08 2.17,1.35 2.00,1.61 1.78,1.83 1.56,2.04 1.29,2.20 1.02,2.36 0.73,2.45 0.43,2.54 0.12,2.55 -0.18,2.57 -0.49,2.51 -0.79,2.45 -1.07,2.32 -1.36,2.18 -1.60,1.99 -1.84,1.79 -2.03,1.55 -2.22,1.30 -2.34,1.02 -2.47,0.73 -2.52,0.42 -2.57,0.12 -2.55,-0.18 -2.52,-0.49 -2.43,-0.79 -2.33,-1.08 -2.33,-1.08 L -2.33,-1.08 Z"></path></g><g transform="translate(92.65807378079126 128.15190085079144) rotate(0 0.00004999999998744897 0.00004999999998744897)" stroke="none"><path fill="#1e1e1e" d="M 1.57,-1.57 Q 1.57,-1.57 1.77,-1.27 1.98,-0.98 2.09,-0.64 2.20,-0.29 2.19,0.05 2.18,0.41 2.05,0.75 1.93,1.09 1.70,1.37 1.48,1.65 1.18,1.84 0.87,2.04 0.52,2.12 0.18,2.21 -0.17,2.18 -0.53,2.15 -0.86,2.01 -1.19,1.87 -1.46,1.63 -1.73,1.39 -1.90,1.07 -2.08,0.76 -2.15,0.41 -2.21,0.05 -2.17,-0.29 -2.12,-0.65 -1.96,-0.97 -1.80,-1.29 -1.54,-1.54 -1.29,-1.80 -0.97,-1.96 -0.65,-2.12 -0.29,-2.17 0.06,-2.21 0.41,-2.15 0.76,-2.08 1.07,-1.90 1.39,-1.73 1.63,-1.46 1.87,-1.19 2.01,-0.86 2.15,-0.53 2.18,-0.17 2.21,0.18 2.12,0.52 2.03,0.87 1.84,1.18 1.65,1.48 1.37,1.70 1.09,1.93 0.75,2.05 0.41,2.18 0.05,2.19 -0.30,2.20 -0.64,2.09 -0.98,1.98 -1.27,1.77 -1.57,1.56 -1.57,1.57 -1.57,1.57 -1.73,1.35 -1.90,1.14 -2.01,0.90 -2.12,0.66 -2.16,0.39 -2.21,0.13 -2.20,-0.13 -2.18,-0.40 -2.10,-0.65 -2.02,-0.91 -1.88,-1.14 -1.74,-1.36 -1.55,-1.55 -1.36,-1.74 -1.14,-1.88 -0.91,-2.02 -0.65,-2.10 -0.40,-2.18 -0.13,-2.20 0.13,-2.21 0.39,-2.16 0.66,-2.12 0.90,-2.01 1.14,-1.90 1.35,-1.73 1.57,-1.57 1.57,-1.57 L 1.57,-1.57 Z"></path></g><g transform="translate(69.42360068705023 36.19649846325956) rotate(0 24.91804852899554 13.796908778248337)" stroke="none"><path fill="#1e1e1e" d="M 2.46,0.93 Q 2.46,0.93 1.99,2.17 1.52,3.40 2.46,3.98 3.41,4.56 5.04,5.09 6.66,5.61 7.45,7.53 8.23,9.44 8.33,11.84 8.43,14.24 8.40,15.67 8.38,17.10 8.27,18.24 8.17,19.38 9.07,18.29 9.97,17.20 11.74,17.13 13.52,17.05 15.21,18.05 16.89,19.06 17.96,20.04 19.03,21.02 20.68,20.48 22.34,19.94 23.26,19.22 24.19,18.50 25.42,17.91 26.66,17.31 28.27,17.52 29.88,17.72 30.90,18.80 31.92,19.88 32.42,21.03 32.91,22.17 33.58,23.45 34.24,24.74 33.01,24.73 31.78,24.72 32.41,22.81 33.05,20.89 34.83,19.78 36.62,18.66 38.68,18.86 40.74,19.05 42.14,19.78 43.53,20.51 44.64,21.01 45.75,21.51 44.64,21.42 43.53,21.32 44.33,20.35 45.13,19.39 45.98,18.34 46.84,17.30 47.44,16.02 48.04,14.73 48.23,14.20 48.41,13.66 48.76,13.22 49.11,12.77 49.58,12.46 50.05,12.15 50.60,12.01 51.15,11.86 51.71,11.90 52.28,11.94 52.80,12.16 53.32,12.37 53.75,12.74 54.17,13.12 54.46,13.60 54.74,14.09 54.85,14.65 54.97,15.20 54.90,15.76 54.83,16.32 54.59,16.83 54.34,17.34 53.95,17.75 53.55,18.15 53.05,18.41 52.55,18.67 51.99,18.75 51.43,18.83 50.87,18.74 50.32,18.64 49.82,18.36 49.33,18.09 48.94,17.68 48.56,17.26 48.33,16.75 48.10,16.23 48.05,15.67 47.99,15.10 48.12,14.55 48.25,14.00 48.55,13.52 48.85,13.04 49.28,12.68 49.72,12.32 50.25,12.12 50.77,11.92 51.34,11.90 51.90,11.87 52.45,12.03 52.99,12.19 53.45,12.51 53.92,12.84 54.25,13.29 54.59,13.75 54.76,14.29 54.93,14.82 54.93,15.39 54.92,15.95 54.92,15.95 54.92,15.95 53.77,18.51 52.62,21.07 51.58,22.40 50.54,23.72 49.63,24.82 48.72,25.91 47.81,26.72 46.90,27.53 45.63,27.75 44.35,27.97 42.56,27.33 40.76,26.69 39.14,26.29 37.51,25.89 37.03,26.85 36.55,27.82 34.96,28.92 33.37,30.03 31.53,29.68 29.69,29.32 28.81,28.03 27.93,26.75 28.11,25.11 28.28,23.47 27.29,24.34 26.30,25.20 25.21,26.04 24.12,26.87 23.04,27.41 21.95,27.95 20.78,28.13 19.60,28.31 18.55,28.07 17.50,27.84 16.19,26.97 14.87,26.11 13.64,24.66 12.42,23.20 10.93,23.43 9.45,23.65 8.21,23.85 6.96,24.05 5.78,23.73 4.60,23.41 3.76,22.40 2.92,21.38 2.68,19.28 2.44,17.17 2.37,15.79 2.31,14.42 2.82,12.43 3.32,10.45 1.58,9.97 -0.14,9.50 -1.53,8.11 -2.93,6.71 -3.34,5.41 -3.76,4.10 -3.59,2.83 -3.41,1.57 -2.93,0.31 -2.46,-0.93 -2.31,-1.21 -2.16,-1.50 -1.95,-1.73 -1.74,-1.97 -1.48,-2.15 -1.22,-2.33 -0.92,-2.44 -0.62,-2.56 -0.31,-2.59 0.00,-2.63 0.31,-2.59 0.63,-2.55 0.93,-2.44 1.22,-2.33 1.49,-2.15 1.75,-1.97 1.96,-1.73 2.17,-1.49 2.31,-1.21 2.46,-0.93 2.54,-0.62 2.61,-0.31 2.61,0.00 2.61,0.32 2.54,0.63 2.46,0.93 2.46,0.93 L 2.46,0.93 Z"></path></g><g transform="translate(79.57680585758624 18.38391455942326) rotate(0 -3.49734090176554 4.828756345640016)" stroke="none"><path fill="#1e1e1e" d="M -1.46,2.18 Q -1.46,2.18 -2.34,1.61 -3.23,1.05 -4.30,1.27 -5.37,1.48 -4.38,2.06 -3.39,2.64 -2.74,3.57 -2.09,4.50 -1.29,5.65 -0.49,6.81 0.60,8.22 1.70,9.64 1.97,10.11 2.23,10.58 2.33,11.11 2.43,11.64 2.35,12.17 2.27,12.70 2.03,13.18 1.79,13.67 1.41,14.04 1.02,14.42 0.54,14.66 0.06,14.90 -0.47,14.97 -1.00,15.04 -1.53,14.93 -2.06,14.83 -2.52,14.56 -2.99,14.29 -3.35,13.89 -3.71,13.49 -3.92,12.99 -4.13,12.49 -4.17,11.96 -4.21,11.42 -4.08,10.90 -3.94,10.38 -3.65,9.92 -3.36,9.47 -2.94,9.14 -2.51,8.80 -2.01,8.62 -1.50,8.44 -0.96,8.42 -0.43,8.41 0.08,8.57 0.59,8.74 1.03,9.05 1.46,9.37 1.78,9.81 2.09,10.25 2.24,10.76 2.40,11.28 2.38,11.82 2.36,12.35 2.17,12.86 1.99,13.36 1.65,13.78 1.31,14.20 0.85,14.49 0.40,14.77 -0.12,14.90 -0.64,15.03 -1.18,14.98 -1.71,14.93 -2.21,14.72 -2.70,14.50 -3.10,14.14 -3.50,13.78 -3.50,13.78 -3.50,13.78 -4.82,12.00 -6.15,10.22 -6.92,9.05 -7.70,7.87 -8.32,6.87 -8.95,5.87 -9.53,3.92 -10.11,1.98 -9.96,0.61 -9.81,-0.75 -9.26,-1.84 -8.71,-2.93 -7.75,-3.55 -6.80,-4.18 -5.46,-4.24 -4.12,-4.31 -2.20,-3.86 -0.28,-3.41 0.58,-2.79 1.46,-2.18 1.70,-1.97 1.94,-1.76 2.12,-1.50 2.31,-1.25 2.42,-0.95 2.54,-0.66 2.58,-0.34 2.62,-0.03 2.59,0.28 2.55,0.59 2.44,0.89 2.34,1.19 2.16,1.45 1.98,1.71 1.75,1.92 1.51,2.14 1.24,2.29 0.96,2.44 0.65,2.52 0.34,2.60 0.03,2.60 -0.28,2.61 -0.59,2.53 -0.90,2.46 -1.18,2.32 -1.46,2.18 -1.46,2.18 L -1.46,2.18 Z"></path></g><g transform="translate(87.88875201463793 14.035890968950753) rotate(0 18.919199169516332 15.576711627909873)" stroke="none"><path fill="#1e1e1e" d="M -1.78,-1.94 Q -1.78,-1.94 -0.70,-2.91 0.38,-3.88 1.90,-5.01 3.42,-6.15 4.83,-6.49 6.24,-6.84 7.81,-6.66 9.39,-6.48 11.07,-5.28 12.76,-4.07 13.63,-3.02 14.51,-1.96 16.10,-2.10 17.68,-2.24 19.26,-1.58 20.83,-0.92 22.24,0.37 23.65,1.68 24.58,3.10 25.52,4.52 26.32,5.66 27.13,6.80 28.18,8.08 29.22,9.36 29.79,10.45 30.35,11.55 30.72,12.60 31.10,13.65 31.33,14.96 31.55,16.27 31.69,17.38 31.82,18.50 31.93,19.58 32.03,20.67 33.23,21.13 34.42,21.59 35.50,22.14 36.58,22.68 37.98,23.85 39.37,25.02 39.99,26.06 40.62,27.10 40.95,28.37 41.28,29.65 41.33,30.84 41.39,32.03 41.39,33.61 41.40,35.18 41.30,35.75 41.21,36.32 40.94,36.83 40.67,37.34 40.25,37.74 39.83,38.13 39.31,38.38 38.79,38.62 38.21,38.68 37.64,38.74 37.08,38.62 36.51,38.49 36.02,38.20 35.53,37.90 35.15,37.46 34.78,37.02 34.57,36.49 34.35,35.95 34.32,35.37 34.29,34.80 34.45,34.24 34.60,33.69 34.92,33.21 35.25,32.73 35.71,32.39 36.16,32.04 36.71,31.85 37.26,31.67 37.83,31.67 38.41,31.67 38.96,31.85 39.50,32.04 39.96,32.39 40.42,32.73 40.74,33.21 41.07,33.69 41.22,34.24 41.38,34.80 41.34,35.38 41.31,35.95 41.10,36.49 40.89,37.02 40.51,37.46 40.14,37.90 39.65,38.20 39.15,38.49 38.59,38.62 38.03,38.74 37.45,38.68 36.88,38.62 36.36,38.37 35.83,38.13 35.41,37.74 35.00,37.34 34.73,36.83 34.46,36.32 34.36,35.75 34.27,35.18 34.27,35.18 34.27,35.18 34.27,33.45 34.28,31.72 34.22,30.48 34.16,29.24 32.78,28.60 31.40,27.96 30.03,27.49 28.66,27.03 27.41,25.57 26.15,24.11 25.78,22.81 25.41,21.51 25.09,19.51 24.78,17.51 24.43,16.16 24.09,14.82 23.43,13.45 22.77,12.09 21.92,10.85 21.07,9.62 20.08,8.33 19.09,7.05 18.07,5.80 17.04,4.56 15.98,4.32 14.92,4.08 13.63,4.12 12.34,4.16 10.90,3.00 9.47,1.83 8.66,0.73 7.85,-0.37 6.81,-0.77 5.76,-1.16 4.83,-0.60 3.90,-0.04 2.84,0.94 1.78,1.94 1.52,2.13 1.26,2.31 0.97,2.43 0.67,2.55 0.36,2.59 0.04,2.63 -0.27,2.60 -0.58,2.57 -0.88,2.46 -1.18,2.35 -1.45,2.18 -1.71,2.00 -1.93,1.77 -2.14,1.53 -2.29,1.25 -2.45,0.97 -2.53,0.67 -2.61,0.36 -2.61,0.04 -2.62,-0.27 -2.55,-0.58 -2.48,-0.89 -2.34,-1.17 -2.19,-1.46 -1.99,-1.70 -1.78,-1.94 -1.78,-1.94 L -1.78,-1.94 Z"></path></g><g transform="translate(56.37629538069473 26.56001024907681) rotate(0 -6.480390748381353 15.864585237396227)" stroke="none"><path fill="#1e1e1e" d="M 1.80,1.89 Q 1.80,1.89 0.74,2.87 -0.30,3.86 -1.39,4.63 -2.48,5.40 -3.42,6.66 -4.35,7.92 -5.47,9.22 -6.58,10.52 -7.29,11.36 -8.00,12.20 -8.62,13.17 -9.24,14.13 -9.12,15.39 -9.00,16.64 -8.18,18.05 -7.36,19.45 -6.77,21.03 -6.19,22.60 -5.53,23.90 -4.87,25.19 -4.18,26.32 -3.50,27.44 -2.37,28.19 -1.24,28.93 -0.85,29.35 -0.46,29.76 -0.23,30.27 0.00,30.79 0.06,31.35 0.13,31.91 0.00,32.47 -0.11,33.02 -0.40,33.50 -0.69,33.99 -1.12,34.36 -1.56,34.72 -2.08,34.93 -2.61,35.14 -3.17,35.18 -3.74,35.21 -4.29,35.05 -4.83,34.90 -5.30,34.59 -5.77,34.27 -6.11,33.82 -6.46,33.37 -6.64,32.83 -6.82,32.29 -6.82,31.73 -6.82,31.16 -6.64,30.62 -6.46,30.08 -6.11,29.63 -5.77,29.18 -5.30,28.86 -4.83,28.55 -4.29,28.39 -3.74,28.24 -3.18,28.27 -2.61,28.30 -2.08,28.51 -1.56,28.72 -1.13,29.09 -0.69,29.46 -0.40,29.94 -0.11,30.43 0.00,30.98 0.13,31.53 0.06,32.10 0.00,32.66 -0.22,33.17 -0.46,33.69 -0.85,34.10 -1.24,34.51 -1.74,34.78 -2.24,35.04 -2.80,35.13 -3.36,35.23 -3.92,35.14 -4.48,35.04 -4.98,34.78 -5.48,34.51 -5.48,34.51 -5.48,34.51 -7.52,32.69 -9.57,30.88 -10.17,29.76 -10.77,28.64 -11.44,27.34 -12.10,26.04 -12.66,24.40 -13.22,22.77 -13.81,21.65 -14.41,20.53 -15.08,19.03 -15.75,17.53 -15.83,15.60 -15.90,13.66 -15.17,12.05 -14.44,10.43 -13.68,9.40 -12.92,8.37 -11.87,7.27 -10.82,6.16 -9.80,5.11 -8.78,4.06 -7.58,2.83 -6.39,1.59 -5.12,0.85 -3.86,0.11 -2.83,-0.88 -1.80,-1.89 -1.55,-2.07 -1.29,-2.26 -1.00,-2.39 -0.71,-2.51 -0.40,-2.56 -0.09,-2.61 0.21,-2.58 0.53,-2.55 0.83,-2.45 1.12,-2.35 1.39,-2.18 1.66,-2.01 1.87,-1.79 2.09,-1.56 2.25,-1.28 2.40,-1.01 2.49,-0.71 2.58,-0.41 2.59,-0.09 2.60,0.21 2.54,0.52 2.47,0.83 2.34,1.12 2.20,1.40 2.00,1.64 1.80,1.89 1.80,1.89 L 1.80,1.89 Z"></path></g><g transform="translate(118.50524247074145 76.11389413372325) rotate(0 4.888999558861201 -1.8141697833783041)" stroke="none"><path fill="#1e1e1e" d="M -2.47,-0.94 Q -2.47,-0.94 -1.99,-2.20 -1.50,-3.46 -0.39,-5.21 0.70,-6.97 1.99,-7.93 3.28,-8.89 4.68,-9.48 6.08,-10.07 8.09,-9.67 10.10,-9.27 10.91,-8.42 11.72,-7.57 12.15,-6.59 12.57,-5.60 12.65,-4.24 12.72,-2.88 12.05,-1.00 11.38,0.87 10.12,3.04 8.87,5.22 8.55,5.60 8.24,5.98 7.81,6.24 7.39,6.50 6.90,6.61 6.42,6.72 5.92,6.67 5.43,6.62 4.98,6.41 4.52,6.21 4.16,5.87 3.80,5.53 3.56,5.09 3.33,4.66 3.24,4.17 3.16,3.68 3.23,3.19 3.31,2.70 3.54,2.25 3.77,1.81 4.13,1.47 4.49,1.12 4.94,0.91 5.38,0.70 5.88,0.64 6.37,0.59 6.86,0.69 7.34,0.79 7.77,1.05 8.20,1.30 8.52,1.67 8.85,2.05 9.04,2.51 9.22,2.97 9.25,3.47 9.28,3.96 9.16,4.44 9.03,4.92 8.75,5.34 8.47,5.75 8.08,6.05 7.69,6.36 7.22,6.52 6.75,6.68 6.25,6.69 5.75,6.69 5.28,6.53 4.81,6.38 4.41,6.08 4.01,5.78 3.73,5.37 3.45,4.96 3.31,4.49 3.18,4.01 3.20,3.51 3.22,3.02 3.40,2.55 3.59,2.09 3.58,2.09 3.58,2.09 4.62,0.40 5.65,-1.28 6.52,-2.72 7.39,-4.16 6.37,-3.79 5.35,-3.41 4.39,-2.49 3.43,-1.57 2.95,-0.31 2.47,0.94 2.32,1.22 2.17,1.51 1.96,1.75 1.75,1.99 1.49,2.17 1.22,2.35 0.92,2.46 0.62,2.57 0.31,2.61 -0.00,2.65 -0.32,2.61 -0.64,2.57 -0.94,2.46 -1.23,2.34 -1.50,2.16 -1.76,1.98 -1.97,1.74 -2.18,1.50 -2.33,1.21 -2.48,0.93 -2.55,0.62 -2.63,0.31 -2.63,-0.00 -2.63,-0.32 -2.55,-0.63 -2.47,-0.94 -2.47,-0.94 L -2.47,-0.94 Z"></path></g><g transform="translate(49.80776355525154 73.75915269882353) rotate(0 -2.981836896013988 1.6625509581571976)" stroke="none"><path fill="#1e1e1e" d="M -2.38,1.04 Q -2.38,1.04 -2.83,0.10 -3.27,-0.83 -2.14,-1.76 -1.01,-2.69 -1.42,-1.58 -1.83,-0.47 -2.28,0.72 -2.73,1.93 -1.80,2.67 -0.87,3.42 0.23,4.41 1.34,5.41 1.67,5.84 2.01,6.27 2.18,6.79 2.36,7.31 2.37,7.85 2.37,8.40 2.20,8.92 2.03,9.44 1.70,9.88 1.37,10.31 0.92,10.62 0.47,10.93 -0.05,11.08 -0.57,11.23 -1.12,11.21 -1.67,11.18 -2.18,10.98 -2.68,10.78 -3.10,10.43 -3.52,10.08 -3.81,9.61 -4.09,9.15 -4.21,8.61 -4.33,8.08 -4.28,7.53 -4.22,6.99 -4.00,6.49 -3.77,6.00 -3.40,5.60 -3.02,5.20 -2.54,4.94 -2.06,4.68 -1.52,4.59 -0.98,4.49 -0.44,4.58 0.09,4.66 0.57,4.92 1.06,5.17 1.44,5.57 1.82,5.96 2.05,6.45 2.28,6.95 2.34,7.49 2.41,8.04 2.29,8.57 2.18,9.11 1.90,9.58 1.62,10.05 1.20,10.40 0.79,10.76 0.28,10.97 -0.21,11.17 -0.76,11.20 -1.31,11.24 -1.83,11.09 -2.36,10.95 -2.82,10.65 -3.27,10.34 -3.27,10.34 -3.27,10.34 -4.72,8.96 -6.17,7.58 -6.86,6.61 -7.56,5.63 -8.10,4.42 -8.65,3.21 -8.77,1.96 -8.89,0.72 -8.49,-0.37 -8.09,-1.47 -7.49,-2.79 -6.89,-4.11 -5.81,-5.15 -4.73,-6.20 -2.25,-5.84 0.22,-5.48 0.91,-4.22 1.60,-2.97 1.99,-2.01 2.38,-1.04 2.47,-0.74 2.56,-0.44 2.58,-0.12 2.60,0.18 2.54,0.49 2.48,0.80 2.34,1.08 2.21,1.37 2.02,1.61 1.82,1.86 1.57,2.05 1.32,2.24 1.03,2.37 0.74,2.49 0.43,2.55 0.12,2.60 -0.18,2.58 -0.49,2.55 -0.79,2.46 -1.09,2.36 -1.36,2.20 -1.62,2.03 -1.84,1.81 -2.06,1.58 -2.22,1.31 -2.38,1.04 -2.38,1.04 L -2.38,1.04 Z"></path></g><g transform="translate(83.72347964816515 79.46891549821464) rotate(0 -0.9303331115563651 3.549902094508866)" stroke="none"><path fill="#1e1e1e" d="M 2.53,0.27 Q 2.53,0.27 2.44,1.37 2.35,2.46 1.21,5.74 0.07,9.03 -0.28,9.29 -0.63,9.54 -1.06,9.68 -1.48,9.81 -1.92,9.80 -2.37,9.78 -2.78,9.63 -3.20,9.48 -3.54,9.20 -3.89,8.93 -4.13,8.55 -4.37,8.18 -4.48,7.75 -4.58,7.32 -4.55,6.88 -4.51,6.44 -4.34,6.03 -4.17,5.62 -3.87,5.29 -3.57,4.96 -3.19,4.75 -2.80,4.53 -2.37,4.44 -1.93,4.36 -1.50,4.42 -1.06,4.48 -0.66,4.67 -0.26,4.87 0.04,5.18 0.35,5.49 0.55,5.89 0.75,6.29 0.81,6.73 0.87,7.16 0.79,7.60 0.71,8.03 0.49,8.42 0.27,8.81 -0.05,9.10 -0.38,9.40 -0.78,9.57 -1.19,9.75 -1.63,9.79 -2.07,9.82 -2.50,9.72 -2.93,9.61 -3.31,9.37 -3.68,9.14 -3.96,8.79 -4.24,8.45 -4.39,8.03 -4.54,7.62 -4.56,7.17 -4.57,6.73 -4.44,6.31 -4.31,5.88 -4.05,5.52 -3.79,5.16 -3.79,5.16 -3.80,5.16 -3.31,3.53 -2.83,1.89 -2.68,0.81 -2.53,-0.27 -2.46,-0.57 -2.39,-0.87 -2.25,-1.14 -2.11,-1.42 -1.91,-1.65 -1.71,-1.88 -1.46,-2.06 -1.21,-2.24 -0.92,-2.35 -0.63,-2.46 -0.33,-2.50 -0.03,-2.54 0.27,-2.51 0.58,-2.48 0.86,-2.37 1.15,-2.27 1.41,-2.09 1.66,-1.92 1.87,-1.70 2.08,-1.47 2.22,-1.20 2.37,-0.93 2.44,-0.63 2.52,-0.33 2.53,-0.03 2.53,0.27 2.53,0.27 L 2.53,0.27 Z"></path></g><g transform="translate(69.71873448074462 70.46742120582161) rotate(0 0.3597300873208269 1.8306186377237452)" stroke="none"><path fill="#1e1e1e" d="M 2.39,-0.50 Q 2.39,-0.50 2.59,0.22 2.80,0.95 2.92,1.21 3.05,1.46 3.11,1.78 3.17,2.09 3.15,2.40 3.13,2.72 3.04,3.02 2.95,3.33 2.79,3.60 2.63,3.87 2.41,4.10 2.18,4.33 1.91,4.49 1.64,4.66 1.34,4.76 1.04,4.85 0.72,4.88 0.41,4.90 0.09,4.84 -0.21,4.79 -0.50,4.66 -0.79,4.53 -1.04,4.34 -1.29,4.15 -1.49,3.90 -1.69,3.65 -1.82,3.36 -1.95,3.07 -2.09,1.89 -2.23,0.70 -2.24,0.67 -2.24,0.64 -2.20,0.30 -2.16,-0.02 -2.04,-0.33 -1.92,-0.65 -1.73,-0.93 -1.54,-1.20 -1.28,-1.43 -1.03,-1.65 -0.73,-1.80 -0.44,-1.96 -0.11,-2.04 0.21,-2.12 0.54,-2.12 0.88,-2.12 1.21,-2.04 1.53,-1.96 1.83,-1.80 2.13,-1.65 2.38,-1.42 2.63,-1.20 2.82,-0.92 3.01,-0.65 3.13,-0.33 3.25,-0.02 3.29,0.31 3.33,0.64 3.00,3.12 2.66,5.60 2.30,5.89 1.93,6.19 1.49,6.35 1.05,6.51 0.58,6.52 0.11,6.53 -0.33,6.39 -0.78,6.25 -1.16,5.98 -1.54,5.70 -1.81,5.32 -2.08,4.94 -2.22,4.49 -2.36,4.04 -2.34,3.57 -2.33,3.10 -2.17,2.66 -2.00,2.22 -1.71,1.86 -1.41,1.49 -1.02,1.24 -0.62,0.99 -0.16,0.88 0.28,0.76 0.75,0.80 1.22,0.84 1.65,1.03 2.08,1.22 2.43,1.53 2.78,1.85 3.01,2.26 3.24,2.66 3.32,3.13 3.41,3.59 3.34,4.05 3.28,4.52 3.07,4.94 2.86,5.36 2.53,5.69 2.19,6.02 1.77,6.23 1.35,6.43 0.89,6.49 0.42,6.56 -0.03,6.47 -0.49,6.38 -0.90,6.14 -1.31,5.91 -1.62,5.56 -1.93,5.21 -2.11,4.78 -2.30,4.35 -2.34,3.88 -2.37,3.41 -2.26,2.96 -2.14,2.50 -1.89,2.11 -1.63,1.71 -1.63,1.71 -1.63,1.71 -1.94,1.18 -2.24,0.64 -2.20,0.30 -2.16,-0.02 -2.04,-0.33 -1.92,-0.65 -1.73,-0.93 -1.54,-1.20 -1.28,-1.43 -1.03,-1.65 -0.74,-1.80 -0.44,-1.96 -0.11,-2.04 0.21,-2.12 0.54,-2.12 0.88,-2.12 1.21,-2.04 1.53,-1.96 1.83,-1.80 2.13,-1.65 2.38,-1.42 2.63,-1.20 2.82,-0.92 3.01,-0.65 3.13,-0.33 3.25,-0.02 3.29,0.31 3.33,0.64 3.19,1.05 3.05,1.46 3.11,1.77 3.17,2.09 3.15,2.40 3.13,2.72 3.04,3.02 2.95,3.33 2.79,3.60 2.63,3.87 2.41,4.10 2.18,4.33 1.91,4.49 1.64,4.66 1.34,4.76 1.04,4.85 0.72,4.88 0.41,4.90 0.09,4.84 -0.21,4.79 -0.50,4.66 -0.79,4.53 -1.04,4.34 -1.29,4.15 -1.49,3.90 -1.69,3.65 -1.82,3.36 -1.95,3.07 -2.07,2.54 -2.18,2.00 -2.28,1.25 -2.39,0.50 -2.41,0.20 -2.44,-0.08 -2.39,-0.37 -2.35,-0.66 -2.23,-0.93 -2.12,-1.21 -1.94,-1.44 -1.77,-1.68 -1.54,-1.87 -1.31,-2.06 -1.05,-2.18 -0.78,-2.31 -0.49,-2.37 -0.20,-2.43 0.08,-2.42 0.37,-2.41 0.66,-2.33 0.94,-2.25 1.20,-2.10 1.45,-1.96 1.67,-1.76 1.88,-1.55 2.04,-1.30 2.20,-1.06 2.29,-0.78 2.39,-0.50 2.39,-0.50 L 2.39,-0.50 Z"></path></g><g transform="translate(95.71836706142665 71.44719387529221) rotate(0 -0.07377277181387853 1.0709347374977654)" stroke="none"><path fill="#1e1e1e" d="M 2.38,0 Q 2.38,0 2.37,0.59 2.36,1.19 2.44,1.57 2.51,1.95 2.46,2.34 2.41,2.73 2.24,3.08 2.06,3.43 1.79,3.70 1.51,3.98 1.16,4.15 0.81,4.33 0.43,4.38 0.04,4.43 -0.33,4.36 -0.72,4.29 -1.06,4.10 -1.40,3.90 -1.66,3.61 -1.92,3.32 -2.07,2.97 -2.23,2.61 -2.26,2.22 -2.29,1.83 -2.20,1.45 -2.11,1.07 -1.90,0.74 -1.69,0.41 -1.38,0.17 -1.08,-0.07 -0.71,-0.20 -0.35,-0.34 0.03,-0.35 0.42,-0.36 0.80,-0.24 1.17,-0.13 1.49,0.09 1.80,0.31 2.03,0.63 2.26,0.95 2.38,1.32 2.49,1.69 2.48,2.08 2.47,2.47 2.34,2.84 2.20,3.21 1.96,3.51 1.71,3.82 1.39,4.03 1.06,4.24 0.68,4.33 0.30,4.43 -0.08,4.40 -0.47,4.36 -0.83,4.21 -1.19,4.06 -1.48,3.80 -1.77,3.54 -1.96,3.20 -2.15,2.86 -2.15,2.86 -2.15,2.86 -2.27,1.43 -2.38,0 -2.35,-0.28 -2.32,-0.57 -2.21,-0.84 -2.11,-1.11 -1.95,-1.34 -1.78,-1.58 -1.57,-1.77 -1.35,-1.96 -1.10,-2.10 -0.84,-2.23 -0.56,-2.30 -0.28,-2.37 0.00,-2.37 0.28,-2.37 0.56,-2.30 0.84,-2.23 1.10,-2.10 1.35,-1.96 1.57,-1.77 1.78,-1.58 1.95,-1.34 2.11,-1.11 2.21,-0.84 2.32,-0.57 2.35,-0.28 2.38,0.00 2.38,0.00 L 2.38,0 Z"></path></g><g transform="translate(78.2629721592707 99.42019306571706) rotate(0 2.678478070267431 0.5871227378618187)" stroke="none"><path fill="#1e1e1e" d="M 1.19,-2.16 Q 1.19,-2.16 1.75,-1.91 2.31,-1.66 3.07,-2.02 3.84,-2.38 4.25,-2.56 4.66,-2.74 5.10,-2.78 5.55,-2.82 5.98,-2.72 6.42,-2.62 6.80,-2.38 7.17,-2.14 7.46,-1.80 7.74,-1.45 7.90,-1.04 8.06,-0.62 8.08,-0.17 8.09,0.27 7.97,0.69 7.84,1.12 7.58,1.49 7.33,1.85 6.97,2.12 6.61,2.38 6.18,2.52 5.75,2.66 5.31,2.65 4.86,2.64 4.44,2.49 4.02,2.34 3.67,2.07 3.32,1.79 3.07,1.42 2.83,1.04 2.71,0.61 2.60,0.18 2.63,-0.26 2.66,-0.71 2.84,-1.12 3.01,-1.53 3.30,-1.87 3.60,-2.20 3.98,-2.43 4.37,-2.65 4.81,-2.74 5.25,-2.83 5.69,-2.77 6.13,-2.72 6.54,-2.52 6.94,-2.33 7.26,-2.02 7.58,-1.70 7.78,-1.30 7.98,-0.91 8.05,-0.46 8.11,-0.02 8.04,0.41 7.96,0.85 7.74,1.24 7.52,1.63 7.19,1.93 6.86,2.23 6.87,2.23 6.87,2.23 4.61,3.09 2.36,3.94 1.09,3.39 -0.16,2.84 -0.67,2.50 -1.19,2.16 -1.43,1.99 -1.67,1.81 -1.86,1.58 -2.06,1.36 -2.19,1.09 -2.32,0.82 -2.39,0.53 -2.45,0.24 -2.45,-0.04 -2.44,-0.34 -2.36,-0.63 -2.29,-0.92 -2.14,-1.18 -2.00,-1.44 -1.80,-1.66 -1.60,-1.88 -1.35,-2.04 -1.10,-2.21 -0.82,-2.31 -0.54,-2.41 -0.24,-2.44 0.04,-2.47 0.34,-2.42 0.63,-2.38 0.91,-2.27 1.19,-2.16 1.19,-2.16 L 1.19,-2.16 Z"></path></g><g transform="translate(109.17110695973395 70.54019487882562) rotate(0 -19.107014186342326 25.022132637478336)" stroke="none"><path fill="#1e1e1e" d="M 2.55,0 Q 2.55,0 2.52,1.55 2.50,3.10 2.50,4.50 2.50,5.91 2.50,7.36 2.49,8.80 2.52,9.98 2.55,11.16 2.56,12.42 2.58,13.67 2.66,15.35 2.73,17.02 2.79,18.87 2.84,20.72 2.83,22.54 2.81,24.36 2.68,25.77 2.55,27.18 2.38,28.30 2.21,29.41 1.65,31.16 1.09,32.91 0.18,34.39 -0.72,35.87 -1.48,37.08 -2.23,38.30 -3.47,39.70 -4.72,41.11 -5.72,42.08 -6.73,43.06 -7.83,43.79 -8.92,44.53 -10.01,45.15 -11.10,45.76 -12.19,46.59 -13.28,47.42 -14.53,48.27 -15.79,49.13 -17.14,49.98 -18.49,50.84 -19.65,51.48 -20.82,52.13 -22.09,52.49 -23.37,52.84 -24.46,53.12 -25.55,53.39 -27.23,53.22 -28.90,53.04 -30.09,52.67 -31.27,52.30 -32.23,51.81 -33.18,51.31 -34.37,50.80 -35.56,50.29 -37.47,49.22 -39.38,48.14 -39.89,47.87 -40.40,47.59 -40.79,47.17 -41.19,46.74 -41.43,46.22 -41.67,45.69 -41.72,45.11 -41.78,44.54 -41.65,43.97 -41.52,43.41 -41.22,42.91 -40.92,42.42 -40.47,42.05 -40.03,41.68 -39.49,41.47 -38.95,41.26 -38.37,41.23 -37.79,41.21 -37.23,41.37 -36.68,41.53 -36.20,41.85 -35.72,42.18 -35.38,42.65 -35.03,43.11 -34.85,43.66 -34.67,44.21 -34.68,44.79 -34.68,45.37 -34.87,45.92 -35.06,46.46 -35.42,46.92 -35.77,47.38 -36.25,47.70 -36.74,48.02 -37.29,48.17 -37.85,48.32 -38.43,48.29 -39.01,48.25 -39.55,48.03 -40.08,47.81 -40.52,47.43 -40.96,47.05 -41.25,46.55 -41.55,46.06 -41.67,45.49 -41.78,44.92 -41.72,44.35 -41.65,43.77 -41.40,43.25 -41.15,42.72 -40.75,42.31 -40.35,41.89 -39.84,41.62 -39.32,41.36 -38.75,41.27 -38.18,41.18 -37.61,41.28 -37.04,41.38 -37.04,41.38 -37.04,41.38 -34.97,42.46 -32.91,43.53 -31.98,44.07 -31.06,44.62 -29.72,45.36 -28.37,46.10 -27.31,46.34 -26.25,46.58 -24.66,46.10 -23.08,45.62 -22.02,45.02 -20.96,44.41 -19.66,43.51 -18.35,42.62 -17.17,41.79 -15.99,40.97 -14.39,40.00 -12.78,39.04 -11.52,38.29 -10.26,37.54 -9.36,36.64 -8.45,35.73 -7.69,34.67 -6.92,33.61 -6.05,32.27 -5.18,30.93 -4.58,29.82 -3.98,28.71 -3.71,27.54 -3.45,26.37 -3.24,25.15 -3.03,23.92 -2.94,22.32 -2.84,20.72 -2.79,18.87 -2.73,17.02 -2.66,15.35 -2.58,13.67 -2.56,12.42 -2.55,11.16 -2.52,9.98 -2.49,8.80 -2.50,7.36 -2.50,5.91 -2.50,4.50 -2.50,3.10 -2.52,1.55 -2.55,0 -2.51,-0.30 -2.48,-0.61 -2.37,-0.89 -2.26,-1.18 -2.08,-1.44 -1.91,-1.69 -1.68,-1.89 -1.45,-2.10 -1.17,-2.24 -0.90,-2.38 -0.60,-2.46 -0.30,-2.53 0.00,-2.53 0.30,-2.53 0.60,-2.46 0.90,-2.38 1.17,-2.24 1.45,-2.10 1.68,-1.89 1.91,-1.69 2.08,-1.44 2.26,-1.18 2.37,-0.89 2.48,-0.61 2.51,-0.30 2.55,0.00 2.55,0.00 L 2.55,0 Z"></path></g><g transform="translate(97.04866421484553 116.88336563117855) rotate(0 -5.717808870353508 8.346218977761964)" stroke="none"><path fill="#1e1e1e" d="M 2.38,1.10 Q 2.38,1.10 1.83,2.29 1.28,3.49 0.76,4.60 0.24,5.71 -0.57,6.87 -1.40,8.04 -2.43,9.59 -3.45,11.15 -4.61,12.63 -5.77,14.12 -8.18,16.88 -10.58,19.65 -11.08,19.71 -11.57,19.77 -12.06,19.66 -12.55,19.56 -12.98,19.31 -13.41,19.05 -13.73,18.67 -14.06,18.30 -14.25,17.83 -14.44,17.37 -14.47,16.88 -14.50,16.38 -14.37,15.90 -14.24,15.41 -13.96,15.00 -13.68,14.59 -13.29,14.28 -12.89,13.98 -12.42,13.81 -11.95,13.65 -11.45,13.65 -10.96,13.64 -10.48,13.80 -10.01,13.95 -9.61,14.25 -9.21,14.55 -8.93,14.96 -8.64,15.37 -8.51,15.85 -8.37,16.33 -8.39,16.83 -8.42,17.33 -8.60,17.79 -8.78,18.26 -9.10,18.64 -9.42,19.02 -9.84,19.28 -10.27,19.54 -10.75,19.65 -11.24,19.76 -11.74,19.71 -12.23,19.66 -12.69,19.46 -13.14,19.25 -13.51,18.91 -13.87,18.57 -14.11,18.13 -14.34,17.69 -14.43,17.20 -14.51,16.71 -14.44,16.22 -14.36,15.73 -14.13,15.28 -13.90,14.84 -13.54,14.50 -13.18,14.15 -12.73,13.94 -12.28,13.72 -12.28,13.72 -12.28,13.72 -11.53,12.38 -10.78,11.04 -9.96,10.22 -9.14,9.40 -8.03,7.87 -6.92,6.34 -5.73,4.86 -4.53,3.38 -4.01,2.33 -3.49,1.28 -2.94,0.09 -2.38,-1.10 -2.22,-1.37 -2.05,-1.64 -1.82,-1.86 -1.60,-2.08 -1.32,-2.24 -1.05,-2.40 -0.75,-2.50 -0.44,-2.59 -0.13,-2.60 0.18,-2.62 0.49,-2.56 0.80,-2.50 1.09,-2.36 1.38,-2.23 1.63,-2.03 1.87,-1.84 2.07,-1.58 2.26,-1.33 2.39,-1.04 2.51,-0.75 2.57,-0.44 2.62,-0.13 2.60,0.18 2.58,0.50 2.48,0.80 2.38,1.10 2.38,1.10 L 2.38,1.10 Z"></path></g><g transform="translate(55.60875403702596 124.50065436790294) rotate(0 12.763058463092591 7.228612027154242)" stroke="none"><path fill="#1e1e1e" d="M 2.47,-0.79 Q 2.47,-0.79 2.91,0.68 3.35,2.17 3.94,3.14 4.52,4.12 5.12,5.08 5.71,6.05 6.37,6.91 7.03,7.78 8.06,8.50 9.09,9.21 10.44,9.94 11.78,10.67 13.24,10.94 14.70,11.21 16.10,11.29 17.50,11.37 19.32,11.38 21.15,11.39 23.34,11.37 25.53,11.36 26.02,11.44 26.51,11.52 26.96,11.76 27.40,11.99 27.74,12.36 28.08,12.72 28.29,13.18 28.50,13.63 28.56,14.13 28.61,14.63 28.50,15.11 28.39,15.60 28.13,16.03 27.87,16.46 27.49,16.78 27.11,17.11 26.65,17.29 26.18,17.47 25.68,17.50 25.18,17.53 24.70,17.39 24.22,17.26 23.80,16.98 23.39,16.69 23.09,16.29 22.79,15.90 22.63,15.42 22.47,14.95 22.47,14.45 22.47,13.95 22.63,13.47 22.79,13.00 23.09,12.60 23.40,12.20 23.81,11.92 24.23,11.64 24.71,11.51 25.19,11.38 25.69,11.40 26.19,11.43 26.66,11.62 27.12,11.81 27.50,12.13 27.88,12.45 28.14,12.88 28.40,13.31 28.50,13.80 28.61,14.29 28.56,14.79 28.50,15.29 28.29,15.74 28.08,16.19 27.73,16.56 27.39,16.92 26.94,17.15 26.50,17.39 26.01,17.47 25.51,17.55 25.51,17.55 25.51,17.55 22.32,17.50 19.12,17.46 17.18,17.35 15.24,17.24 13.30,16.80 11.36,16.36 9.43,15.52 7.50,14.68 5.91,13.54 4.33,12.41 3.57,11.65 2.81,10.89 2.03,9.78 1.24,8.66 0.68,7.64 0.12,6.62 -0.66,5.18 -1.45,3.74 -1.96,2.26 -2.47,0.79 -2.53,0.48 -2.59,0.17 -2.57,-0.13 -2.55,-0.44 -2.46,-0.74 -2.37,-1.04 -2.21,-1.31 -2.05,-1.58 -1.83,-1.80 -1.61,-2.02 -1.35,-2.19 -1.08,-2.35 -0.78,-2.45 -0.49,-2.54 -0.17,-2.57 0.13,-2.59 0.44,-2.53 0.75,-2.48 1.03,-2.35 1.32,-2.23 1.57,-2.04 1.82,-1.85 2.01,-1.60 2.21,-1.36 2.34,-1.07 2.47,-0.79 2.47,-0.79 L 2.47,-0.79 Z"></path></g><g transform="translate(43.59851458283492 127.69916669217253) rotate(0 20.17955242128494 10.545922548368821)" stroke="none"><path fill="#1e1e1e" d="M 2.61,-0.33 Q 2.61,-0.33 2.78,1.16 2.94,2.66 3.57,4.20 4.19,5.74 4.97,6.88 5.74,8.02 7.15,8.94 8.57,9.85 10.06,10.80 11.56,11.74 13.12,12.54 14.68,13.35 16.11,14.08 17.55,14.81 19.03,15.09 20.51,15.37 21.95,15.71 23.38,16.05 24.66,16.21 25.94,16.38 27.71,16.69 29.48,17.00 30.95,17.33 32.42,17.65 33.67,17.67 34.91,17.68 36.80,17.04 38.69,16.40 39.22,16.22 39.75,16.03 40.31,16.02 40.87,16.02 41.40,16.19 41.94,16.36 42.39,16.69 42.84,17.03 43.16,17.49 43.48,17.95 43.64,18.48 43.79,19.02 43.77,19.58 43.75,20.14 43.55,20.67 43.35,21.19 42.99,21.62 42.63,22.05 42.16,22.35 41.68,22.64 41.13,22.77 40.59,22.90 40.03,22.85 39.47,22.79 38.96,22.56 38.45,22.33 38.03,21.95 37.62,21.57 37.35,21.08 37.08,20.59 36.99,20.04 36.89,19.49 36.97,18.93 37.06,18.38 37.31,17.88 37.57,17.38 37.97,16.99 38.37,16.60 38.88,16.36 39.38,16.11 39.94,16.05 40.50,15.98 41.05,16.09 41.60,16.21 42.08,16.49 42.56,16.77 42.93,17.19 43.30,17.62 43.51,18.14 43.73,18.65 43.77,19.21 43.80,19.77 43.66,20.31 43.52,20.86 43.21,21.32 42.90,21.79 42.46,22.14 42.02,22.48 42.02,22.48 42.02,22.48 40.54,23.13 39.07,23.78 38.00,24.13 36.93,24.47 35.86,24.47 34.80,24.47 33.55,24.41 32.31,24.35 31.22,24.14 30.13,23.92 28.53,23.42 26.93,22.92 25.22,22.72 23.51,22.53 21.89,22.21 20.26,21.89 18.87,21.47 17.48,21.04 16.23,20.79 14.98,20.53 13.41,19.71 11.84,18.88 10.16,17.98 8.47,17.09 7.09,16.16 5.71,15.23 4.13,14.21 2.55,13.18 1.61,11.90 0.67,10.61 -0.03,9.27 -0.75,7.94 -1.19,6.82 -1.63,5.71 -1.91,4.51 -2.18,3.32 -2.40,1.82 -2.61,0.33 -2.62,0.01 -2.62,-0.30 -2.54,-0.61 -2.47,-0.92 -2.32,-1.20 -2.18,-1.48 -1.97,-1.72 -1.76,-1.96 -1.50,-2.14 -1.23,-2.33 -0.94,-2.44 -0.64,-2.56 -0.33,-2.60 -0.01,-2.64 0.30,-2.60 0.61,-2.56 0.91,-2.45 1.21,-2.34 1.47,-2.16 1.74,-1.98 1.95,-1.74 2.16,-1.51 2.31,-1.23 2.46,-0.94 2.54,-0.64 2.61,-0.33 2.61,-0.33 L 2.61,-0.33 Z"></path></g><g transform="translate(45.89571015202159 129.92017646114448) rotate(0 1.2841826832806191 -1.8174832847837479)" stroke="none"><path fill="#1e1e1e" d="M -1.98,-1.48 Q -1.98,-1.48 -1.57,-2.11 -1.15,-2.74 0.10,-4.35 1.37,-5.96 1.77,-6.09 2.17,-6.22 2.60,-6.21 3.02,-6.20 3.42,-6.06 3.82,-5.92 4.15,-5.66 4.48,-5.40 4.72,-5.05 4.95,-4.70 5.06,-4.29 5.17,-3.88 5.14,-3.46 5.11,-3.04 4.95,-2.64 4.79,-2.25 4.51,-1.93 4.23,-1.62 3.87,-1.40 3.50,-1.19 3.09,-1.10 2.67,-1.02 2.25,-1.07 1.83,-1.12 1.45,-1.30 1.07,-1.48 0.76,-1.78 0.46,-2.07 0.27,-2.45 0.07,-2.83 0.01,-3.25 -0.04,-3.66 0.02,-4.08 0.10,-4.50 0.30,-4.87 0.50,-5.24 0.81,-5.53 1.12,-5.81 1.51,-5.99 1.90,-6.16 2.32,-6.20 2.74,-6.24 3.15,-6.14 3.56,-6.05 3.92,-5.82 4.28,-5.60 4.55,-5.28 4.82,-4.95 4.97,-4.55 5.12,-4.16 5.14,-3.74 5.16,-3.31 5.04,-2.91 4.92,-2.50 4.68,-2.15 4.44,-1.81 4.10,-1.56 3.76,-1.30 3.76,-1.30 3.76,-1.30 3.37,-0.49 2.97,0.32 2.47,0.90 1.98,1.48 1.77,1.70 1.56,1.91 1.31,2.07 1.06,2.23 0.78,2.33 0.49,2.42 0.20,2.44 -0.09,2.47 -0.39,2.42 -0.68,2.37 -0.96,2.26 -1.23,2.14 -1.47,1.96 -1.71,1.78 -1.90,1.55 -2.09,1.32 -2.21,1.05 -2.34,0.78 -2.40,0.49 -2.46,0.20 -2.45,-0.09 -2.44,-0.39 -2.36,-0.68 -2.27,-0.96 -2.12,-1.22 -1.98,-1.48 -1.98,-1.48 L -1.98,-1.48 Z"></path></g><g transform="translate(11.649260372693107 160.09486139107645) rotate(0 -0.8246301863465533 8.454392137052224)" stroke="none"><path fill="#1e1e1e" d="M 2.53,0.41 Q 2.53,0.41 2.18,2.14 1.83,3.86 1.75,5.55 1.68,7.23 1.70,8.34 1.73,9.45 1.52,10.57 1.32,11.69 1.38,14.30 1.44,16.90 1.35,17.40 1.27,17.89 1.04,18.33 0.81,18.77 0.44,19.12 0.08,19.46 -0.36,19.67 -0.82,19.88 -1.32,19.94 -1.81,19.99 -2.30,19.88 -2.79,19.77 -3.22,19.52 -3.65,19.26 -3.97,18.88 -4.29,18.50 -4.48,18.03 -4.66,17.57 -4.69,17.07 -4.72,16.57 -4.58,16.09 -4.45,15.60 -4.17,15.19 -3.89,14.78 -3.49,14.48 -3.09,14.17 -2.62,14.01 -2.14,13.85 -1.64,13.85 -1.14,13.85 -0.67,14.01 -0.20,14.17 0.19,14.48 0.59,14.78 0.87,15.19 1.15,15.61 1.28,16.09 1.42,16.57 1.39,17.07 1.36,17.57 1.18,18.03 0.99,18.50 0.67,18.88 0.34,19.26 -0.07,19.52 -0.50,19.78 -0.99,19.88 -1.48,19.99 -1.98,19.94 -2.47,19.88 -2.93,19.67 -3.38,19.46 -3.74,19.12 -4.11,18.77 -4.34,18.33 -4.57,17.89 -4.65,17.40 -4.73,16.90 -4.73,16.90 -4.73,16.90 -4.69,14.78 -4.65,12.65 -4.50,11.39 -4.35,10.13 -3.99,9.09 -3.64,8.06 -3.47,6.75 -3.30,5.43 -3.13,4.26 -2.96,3.08 -2.75,1.33 -2.53,-0.41 -2.44,-0.71 -2.36,-1.00 -2.20,-1.27 -2.05,-1.54 -1.83,-1.76 -1.62,-1.99 -1.35,-2.15 -1.09,-2.32 -0.80,-2.41 -0.51,-2.51 -0.20,-2.54 0.10,-2.56 0.41,-2.51 0.71,-2.46 1.00,-2.34 1.28,-2.22 1.53,-2.03 1.78,-1.84 1.97,-1.60 2.17,-1.36 2.30,-1.08 2.43,-0.80 2.49,-0.50 2.55,-0.20 2.54,0.10 2.53,0.41 2.53,0.41 L 2.53,0.41 Z"></path></g><g transform="translate(16.179572458935013 153.82638349017589) rotate(0 11.692354103128935 -10.666076066527182)" stroke="none"><path fill="#1e1e1e" d="M -2.16,-1.45 Q -2.16,-1.45 -1.17,-2.82 -0.19,-4.18 0.46,-5.23 1.11,-6.29 1.99,-7.31 2.86,-8.34 3.84,-9.62 4.81,-10.91 6.31,-12.29 7.81,-13.66 9.19,-14.62 10.58,-15.58 11.66,-16.35 12.73,-17.12 13.67,-18.04 14.61,-18.96 15.69,-19.96 16.77,-20.96 17.69,-21.58 18.62,-22.20 20.36,-23.32 22.10,-24.44 22.63,-24.56 23.16,-24.68 23.70,-24.63 24.24,-24.58 24.74,-24.35 25.24,-24.13 25.63,-23.76 26.03,-23.39 26.29,-22.91 26.55,-22.43 26.65,-21.90 26.74,-21.36 26.66,-20.83 26.58,-20.29 26.33,-19.81 26.08,-19.32 25.69,-18.94 25.30,-18.57 24.80,-18.33 24.31,-18.10 23.77,-18.03 23.23,-17.97 22.70,-18.08 22.17,-18.19 21.70,-18.47 21.23,-18.74 20.88,-19.15 20.52,-19.56 20.31,-20.07 20.11,-20.57 20.07,-21.11 20.03,-21.65 20.17,-22.18 20.31,-22.71 20.61,-23.16 20.92,-23.61 21.34,-23.95 21.77,-24.28 22.29,-24.46 22.80,-24.64 23.34,-24.64 23.89,-24.65 24.40,-24.48 24.92,-24.31 25.36,-23.99 25.79,-23.66 26.10,-23.22 26.41,-22.77 26.57,-22.25 26.72,-21.73 26.69,-21.18 26.67,-20.64 26.47,-20.13 26.28,-19.63 25.93,-19.21 25.58,-18.79 25.12,-18.50 24.66,-18.22 24.66,-18.22 24.66,-18.22 22.99,-17.41 21.33,-16.61 20.05,-15.39 18.77,-14.18 17.62,-13.25 16.47,-12.32 14.93,-11.34 13.39,-10.36 12.27,-9.70 11.16,-9.03 10.17,-8.33 9.19,-7.63 8.47,-6.73 7.75,-5.83 6.56,-4.69 5.37,-3.54 4.66,-2.47 3.95,-1.39 3.05,0.03 2.16,1.45 1.95,1.69 1.75,1.93 1.49,2.11 1.23,2.29 0.94,2.41 0.65,2.52 0.34,2.56 0.02,2.60 -0.28,2.57 -0.59,2.53 -0.89,2.43 -1.18,2.32 -1.44,2.14 -1.70,1.97 -1.91,1.73 -2.12,1.50 -2.27,1.22 -2.42,0.95 -2.50,0.64 -2.58,0.34 -2.58,0.02 -2.59,-0.28 -2.52,-0.59 -2.44,-0.89 -2.30,-1.17 -2.16,-1.45 -2.16,-1.45 L -2.16,-1.45 Z"></path></g><g transform="translate(56.66121497001973 70.03874706492479) rotate(0 0.5065027678746219 8.065260117806929)" stroke="none"><path fill="#1e1e1e" d="M 2.61,-0.05 Q 2.61,-0.05 2.67,0.75 2.72,1.55 2.83,2.87 2.93,4.19 3.12,5.46 3.30,6.73 3.38,7.91 3.46,9.10 3.51,10.17 3.56,11.23 3.76,12.55 3.95,13.87 4.24,14.33 4.54,14.79 4.67,15.32 4.80,15.86 4.76,16.40 4.71,16.95 4.49,17.45 4.28,17.95 3.91,18.36 3.54,18.77 3.07,19.04 2.59,19.31 2.05,19.41 1.51,19.51 0.97,19.44 0.43,19.36 -0.05,19.12 -0.54,18.87 -0.93,18.48 -1.32,18.10 -1.56,17.60 -1.80,17.11 -1.87,16.57 -1.95,16.03 -1.84,15.49 -1.74,14.95 -1.47,14.48 -1.20,14.00 -0.79,13.63 -0.38,13.27 0.11,13.05 0.62,12.84 1.16,12.80 1.71,12.75 2.24,12.88 2.77,13.02 3.23,13.31 3.69,13.61 4.03,14.04 4.38,14.46 4.56,14.98 4.75,15.49 4.77,16.04 4.78,16.59 4.62,17.11 4.46,17.64 4.14,18.08 3.82,18.52 3.37,18.84 2.92,19.16 2.40,19.32 1.88,19.48 1.33,19.46 0.78,19.45 0.27,19.26 -0.24,19.07 -0.66,18.73 -1.09,18.38 -1.09,18.38 -1.09,18.38 -1.85,15.93 -2.61,13.47 -2.80,12.42 -2.99,11.36 -2.94,10.25 -2.89,9.14 -2.83,7.99 -2.78,6.84 -2.80,5.53 -2.83,4.21 -2.74,2.93 -2.66,1.65 -2.63,0.85 -2.61,0.05 -2.58,-0.26 -2.54,-0.57 -2.44,-0.87 -2.33,-1.16 -2.16,-1.43 -1.99,-1.69 -1.75,-1.90 -1.52,-2.12 -1.25,-2.27 -0.97,-2.42 -0.67,-2.50 -0.36,-2.58 -0.05,-2.59 0.26,-2.60 0.57,-2.53 0.87,-2.46 1.16,-2.32 1.44,-2.17 1.68,-1.97 1.92,-1.77 2.10,-1.51 2.29,-1.25 2.40,-0.96 2.52,-0.67 2.56,-0.36 2.61,-0.05 2.61,-0.05 L 2.61,-0.05 Z"></path></g><g transform="translate(66.66710218822811 49.263618901989844) rotate(0 -3.158683037400408 4.5469356650066)" stroke="none"><path fill="#1e1e1e" d="M 2.08,1.53 Q 2.08,1.53 1.47,2.40 0.87,3.27 0.26,4.50 -0.35,5.74 -0.83,6.80 -1.32,7.87 -3.48,9.98 -5.63,12.10 -6.13,12.13 -6.63,12.15 -7.11,12.02 -7.59,11.89 -8.01,11.62 -8.42,11.34 -8.72,10.94 -9.03,10.55 -9.19,10.08 -9.35,9.60 -9.35,9.11 -9.36,8.61 -9.20,8.13 -9.04,7.66 -8.74,7.26 -8.44,6.86 -8.03,6.58 -7.62,6.30 -7.14,6.16 -6.66,6.03 -6.16,6.05 -5.67,6.08 -5.20,6.26 -4.74,6.44 -4.36,6.76 -3.97,7.08 -3.71,7.51 -3.46,7.93 -3.35,8.42 -3.24,8.91 -3.29,9.40 -3.34,9.90 -3.55,10.35 -3.75,10.80 -4.09,11.17 -4.43,11.53 -4.87,11.77 -5.31,12.00 -5.80,12.09 -6.30,12.17 -6.79,12.09 -7.28,12.01 -7.72,11.78 -8.16,11.55 -8.51,11.19 -8.85,10.83 -9.07,10.38 -9.28,9.93 -9.33,9.43 -9.39,8.94 -9.29,8.45 -9.18,7.96 -8.93,7.53 -8.67,7.11 -8.29,6.78 -7.92,6.46 -7.45,6.27 -6.99,6.08 -6.99,6.08 -6.99,6.08 -6.46,5.37 -5.92,4.66 -5.18,3.38 -4.43,2.09 -3.91,1.12 -3.40,0.14 -2.74,-0.69 -2.08,-1.53 -1.87,-1.76 -1.65,-1.99 -1.39,-2.16 -1.13,-2.33 -0.83,-2.43 -0.53,-2.53 -0.22,-2.56 0.08,-2.59 0.39,-2.54 0.70,-2.49 0.98,-2.37 1.27,-2.25 1.52,-2.06 1.78,-1.88 1.97,-1.64 2.17,-1.40 2.31,-1.12 2.45,-0.84 2.51,-0.53 2.58,-0.22 2.57,0.08 2.56,0.39 2.47,0.69 2.39,0.99 2.23,1.26 2.08,1.54 2.08,1.54 L 2.08,1.53 Z"></path></g><g transform="translate(17.338529518407768 159.78838873019845) rotate(0 -0.7515021654447764 5.887737895680843)" stroke="none"><path fill="#1971c2" d="M 2.42,0.46 Q 2.42,0.46 2.14,1.90 1.86,3.34 1.60,4.63 1.34,5.93 1.26,7.04 1.19,8.15 1.15,10.01 1.10,11.87 1.02,12.28 0.94,12.70 0.72,13.06 0.51,13.43 0.19,13.71 -0.11,13.99 -0.50,14.15 -0.89,14.31 -1.32,14.34 -1.74,14.37 -2.15,14.27 -2.56,14.16 -2.91,13.93 -3.26,13.70 -3.53,13.36 -3.79,13.03 -3.93,12.63 -4.07,12.24 -4.08,11.81 -4.08,11.39 -3.95,10.99 -3.83,10.58 -3.58,10.24 -3.33,9.90 -2.98,9.66 -2.63,9.42 -2.23,9.30 -1.82,9.18 -1.40,9.19 -0.98,9.21 -0.58,9.36 -0.19,9.51 0.13,9.78 0.46,10.05 0.68,10.41 0.90,10.76 1.00,11.18 1.10,11.59 1.06,12.01 1.02,12.43 0.85,12.82 0.68,13.20 0.39,13.51 0.11,13.83 -0.25,14.03 -0.62,14.23 -1.04,14.31 -1.46,14.38 -1.87,14.32 -2.29,14.26 -2.67,14.07 -3.05,13.88 -3.34,13.57 -3.64,13.27 -3.82,12.89 -4.00,12.51 -4.06,12.09 -4.11,11.67 -4.11,11.67 -4.11,11.67 -3.98,9.68 -3.85,7.69 -3.69,6.28 -3.54,4.88 -3.25,3.64 -2.96,2.41 -2.69,0.97 -2.42,-0.46 -2.33,-0.74 -2.24,-1.03 -2.08,-1.28 -1.92,-1.53 -1.71,-1.74 -1.50,-1.95 -1.24,-2.10 -0.99,-2.25 -0.70,-2.34 -0.42,-2.43 -0.12,-2.44 0.17,-2.46 0.46,-2.40 0.75,-2.34 1.02,-2.22 1.29,-2.10 1.52,-1.91 1.76,-1.72 1.94,-1.49 2.12,-1.25 2.24,-0.98 2.36,-0.71 2.41,-0.42 2.46,-0.12 2.44,0.16 2.42,0.46 2.42,0.46 L 2.42,0.46 Z"></path></g><g transform="translate(19.784309821709257 157.67758032234718) rotate(0 0.518478238175021 5.947935743558844)" stroke="none"><path fill="#1971c2" d="M 2.42,0 Q 2.42,0 2.38,1.68 2.35,3.36 2.36,4.79 2.37,6.23 2.91,8.70 3.45,11.18 3.50,11.58 3.55,11.99 3.47,12.39 3.39,12.79 3.18,13.14 2.98,13.49 2.67,13.76 2.37,14.03 1.99,14.19 1.61,14.34 1.21,14.37 0.80,14.40 0.41,14.30 0.01,14.19 -0.32,13.97 -0.66,13.75 -0.91,13.43 -1.16,13.11 -1.30,12.72 -1.44,12.34 -1.44,11.93 -1.45,11.52 -1.33,11.14 -1.20,10.75 -0.96,10.42 -0.72,10.09 -0.39,9.86 -0.05,9.62 0.33,9.51 0.72,9.39 1.13,9.41 1.53,9.42 1.91,9.57 2.30,9.71 2.61,9.97 2.93,10.23 3.14,10.58 3.36,10.92 3.45,11.32 3.55,11.71 3.51,12.12 3.47,12.53 3.30,12.90 3.14,13.27 2.86,13.57 2.59,13.87 2.23,14.07 1.87,14.27 1.47,14.34 1.07,14.41 0.67,14.35 0.27,14.29 -0.09,14.11 -0.45,13.92 -0.74,13.63 -1.02,13.34 -1.20,12.97 -1.37,12.60 -1.37,12.60 -1.37,12.60 -1.74,10.77 -2.11,8.94 -2.24,7.59 -2.37,6.23 -2.36,4.80 -2.35,3.36 -2.38,1.68 -2.42,0 -2.39,-0.29 -2.35,-0.58 -2.25,-0.85 -2.14,-1.12 -1.98,-1.36 -1.81,-1.60 -1.59,-1.80 -1.37,-1.99 -1.11,-2.13 -0.86,-2.26 -0.57,-2.33 -0.29,-2.40 0.00,-2.40 0.29,-2.40 0.57,-2.33 0.86,-2.26 1.11,-2.13 1.37,-1.99 1.59,-1.80 1.81,-1.60 1.98,-1.36 2.14,-1.12 2.25,-0.85 2.35,-0.58 2.39,-0.29 2.42,0.00 2.42,0.00 L 2.42,0 Z"></path></g><g transform="translate(25.235127853759423 153.26468969967743) rotate(0 6.652347657034511 -4.249288407065848)" stroke="none"><path fill="#1971c2" d="M 2.21,0.53 Q 2.21,0.53 2.07,1.37 1.92,2.22 1.93,2.45 1.94,2.67 1.84,2.95 1.73,3.23 1.57,3.47 1.40,3.72 1.18,3.91 0.96,4.11 0.70,4.25 0.44,4.39 0.15,4.46 -0.13,4.53 -0.42,4.53 -0.72,4.53 -1.01,4.46 -1.29,4.39 -1.56,4.26 -1.82,4.12 -2.04,3.93 -2.26,3.73 -2.43,3.49 -2.60,3.25 -2.71,2.97 -2.81,2.69 -2.85,2.40 -2.89,2.11 -2.85,1.81 -2.82,1.52 -2.10,0.43 -1.39,-0.64 -0.64,-1.53 0.11,-2.43 1.32,-3.61 2.53,-4.80 4.12,-6.13 5.71,-7.47 7.32,-8.64 8.93,-9.81 10.95,-11.46 12.97,-13.11 13.31,-13.22 13.65,-13.33 14.01,-13.33 14.36,-13.33 14.70,-13.21 15.04,-13.10 15.32,-12.88 15.60,-12.67 15.80,-12.37 16.00,-12.07 16.10,-11.73 16.19,-11.39 16.17,-11.03 16.15,-10.67 16.02,-10.34 15.88,-10.01 15.65,-9.74 15.42,-9.47 15.11,-9.29 14.81,-9.11 14.46,-9.03 14.11,-8.96 13.76,-9.00 13.40,-9.03 13.08,-9.19 12.76,-9.34 12.50,-9.58 12.24,-9.83 12.08,-10.14 11.91,-10.46 11.85,-10.81 11.80,-11.16 11.86,-11.52 11.91,-11.87 12.08,-12.18 12.25,-12.50 12.51,-12.74 12.77,-12.98 13.09,-13.13 13.42,-13.28 13.77,-13.32 14.13,-13.36 14.47,-13.28 14.82,-13.20 15.13,-13.01 15.43,-12.83 15.66,-12.56 15.89,-12.28 16.02,-11.95 16.15,-11.62 16.17,-11.27 16.19,-10.91 16.09,-10.57 16.00,-10.22 15.79,-9.93 15.59,-9.63 15.31,-9.42 15.02,-9.21 15.02,-9.21 15.03,-9.21 13.29,-7.82 11.56,-6.42 10.19,-5.30 8.83,-4.17 7.49,-2.73 6.15,-1.30 5.08,-0.13 4.01,1.04 2.98,1.85 1.94,2.67 1.84,2.95 1.73,3.23 1.57,3.47 1.40,3.72 1.18,3.91 0.96,4.11 0.70,4.25 0.44,4.39 0.15,4.46 -0.13,4.53 -0.42,4.53 -0.72,4.53 -1.01,4.46 -1.29,4.39 -1.56,4.26 -1.82,4.12 -2.04,3.93 -2.26,3.73 -2.43,3.49 -2.60,3.25 -2.71,2.97 -2.81,2.69 -2.85,2.40 -2.89,2.11 -2.85,1.81 -2.82,1.52 -2.77,1.31 -2.73,1.10 -2.47,0.28 -2.21,-0.53 -2.11,-0.79 -2.01,-1.04 -1.86,-1.27 -1.70,-1.50 -1.50,-1.68 -1.30,-1.86 -1.05,-1.99 -0.81,-2.12 -0.54,-2.19 -0.28,-2.25 -0.00,-2.25 0.26,-2.26 0.53,-2.19 0.79,-2.13 1.04,-2.00 1.28,-1.87 1.49,-1.69 1.69,-1.51 1.85,-1.29 2.01,-1.06 2.10,-0.80 2.20,-0.55 2.24,-0.28 2.27,-0.00 2.24,0.26 2.21,0.53 2.21,0.53 L 2.21,0.53 Z"></path></g><g transform="translate(37.60869839177997 143.80780198464913) rotate(0 11.48371041575939 3.7172171064667054)" stroke="none"><path fill="#1971c2" d="M 1.46,-2.16 Q 1.46,-2.16 2.86,-1.13 4.26,-0.10 5.31,0.75 6.36,1.61 7.80,2.43 9.25,3.24 10.48,3.71 11.72,4.17 13.04,4.08 14.36,3.98 15.96,3.90 17.55,3.81 20.16,3.68 22.77,3.54 23.28,3.60 23.78,3.65 24.25,3.86 24.71,4.07 25.08,4.42 25.45,4.76 25.69,5.21 25.94,5.66 26.02,6.16 26.11,6.66 26.03,7.16 25.95,7.67 25.71,8.12 25.48,8.57 25.11,8.92 24.75,9.27 24.29,9.49 23.83,9.71 23.32,9.77 22.81,9.83 22.32,9.72 21.82,9.61 21.38,9.35 20.94,9.10 20.61,8.71 20.28,8.32 20.09,7.85 19.90,7.38 19.86,6.87 19.83,6.37 19.97,5.87 20.10,5.38 20.38,4.96 20.66,4.54 21.07,4.23 21.47,3.92 21.95,3.75 22.43,3.58 22.94,3.58 23.45,3.58 23.93,3.74 24.42,3.89 24.82,4.20 25.23,4.50 25.52,4.92 25.81,5.34 25.95,5.83 26.09,6.32 26.06,6.83 26.04,7.34 25.85,7.81 25.67,8.29 25.34,8.68 25.02,9.07 24.58,9.33 24.15,9.60 23.65,9.71 23.15,9.82 23.16,9.82 23.16,9.82 20.99,9.92 18.82,10.02 17.55,9.92 16.28,9.83 14.87,9.89 13.47,9.96 12.33,9.95 11.19,9.95 9.68,9.37 8.17,8.80 6.58,7.85 5.00,6.90 4.02,6.17 3.05,5.44 2.27,4.72 1.48,3.99 0.01,3.08 -1.46,2.16 -1.70,1.95 -1.93,1.75 -2.12,1.49 -2.30,1.23 -2.41,0.94 -2.53,0.64 -2.57,0.33 -2.61,0.02 -2.57,-0.28 -2.54,-0.60 -2.43,-0.89 -2.32,-1.19 -2.14,-1.45 -1.97,-1.71 -1.73,-1.92 -1.50,-2.13 -1.22,-2.28 -0.94,-2.43 -0.64,-2.51 -0.33,-2.59 -0.02,-2.59 0.29,-2.59 0.59,-2.52 0.90,-2.45 1.18,-2.30 1.46,-2.16 1.46,-2.16 L 1.46,-2.16 Z"></path></g><g transform="translate(90.63911864017973 135.26553318415438) rotate(0 -3.2540820510181447 6.6717663176403335)" stroke="none"><path fill="#1971c2" d="M 2.60,-0.36 Q 2.60,-0.36 2.78,1.11 2.96,2.60 3.10,4.50 3.24,6.41 2.94,7.81 2.63,9.22 1.69,10.54 0.75,11.86 -0.10,12.57 -0.97,13.28 -2.20,13.89 -3.43,14.50 -4.72,15.38 -6.00,16.27 -6.50,16.38 -7.00,16.50 -7.51,16.45 -8.02,16.41 -8.49,16.20 -8.96,15.99 -9.34,15.64 -9.71,15.30 -9.96,14.85 -10.21,14.40 -10.30,13.89 -10.39,13.39 -10.31,12.88 -10.24,12.37 -10.01,11.91 -9.77,11.46 -9.40,11.10 -9.04,10.74 -8.57,10.52 -8.11,10.30 -7.60,10.23 -7.09,10.17 -6.59,10.27 -6.09,10.37 -5.64,10.63 -5.20,10.89 -4.86,11.28 -4.53,11.66 -4.33,12.14 -4.13,12.61 -4.10,13.12 -4.06,13.63 -4.19,14.13 -4.32,14.63 -4.60,15.06 -4.88,15.48 -5.29,15.80 -5.69,16.12 -6.17,16.29 -6.66,16.46 -7.17,16.47 -7.68,16.48 -8.17,16.32 -8.66,16.16 -9.07,15.86 -9.49,15.55 -9.78,15.13 -10.08,14.71 -10.22,14.22 -10.37,13.73 -10.35,13.22 -10.33,12.70 -10.14,12.22 -9.96,11.74 -9.63,11.35 -9.31,10.95 -8.87,10.68 -8.44,10.41 -8.44,10.41 -8.44,10.41 -7.26,9.61 -6.08,8.82 -4.94,8.36 -3.80,7.91 -3.00,7.02 -2.21,6.13 -2.17,4.72 -2.14,3.31 -2.37,1.83 -2.60,0.36 -2.60,0.04 -2.61,-0.27 -2.54,-0.57 -2.47,-0.88 -2.32,-1.17 -2.18,-1.45 -1.98,-1.69 -1.77,-1.93 -1.51,-2.11 -1.25,-2.30 -0.96,-2.42 -0.67,-2.53 -0.35,-2.58 -0.04,-2.62 0.26,-2.59 0.58,-2.55 0.88,-2.45 1.17,-2.34 1.44,-2.17 1.70,-1.99 1.92,-1.76 2.13,-1.52 2.28,-1.25 2.43,-0.97 2.51,-0.66 2.60,-0.36 2.60,-0.36 L 2.60,-0.36 Z"></path></g><g transform="translate(95.93555832041375 137.75112174169777) rotate(0 7.1790788259670535 0.4971177115086789)" stroke="none"><path fill="#1971c2" d="M 0.13,-2.64 Q 0.13,-2.64 1.54,-2.55 2.96,-2.47 4.69,-2.21 6.42,-1.94 7.64,-1.96 8.86,-1.97 10.01,-2.01 11.16,-2.06 12.76,-2.07 14.35,-2.08 14.85,-2.00 15.34,-1.92 15.78,-1.69 16.22,-1.46 16.56,-1.09 16.91,-0.73 17.12,-0.28 17.33,0.17 17.38,0.66 17.43,1.16 17.33,1.65 17.22,2.13 16.96,2.56 16.70,2.99 16.32,3.31 15.94,3.63 15.48,3.82 15.01,4.00 14.52,4.03 14.02,4.06 13.54,3.92 13.06,3.79 12.64,3.51 12.23,3.23 11.93,2.83 11.63,2.43 11.47,1.96 11.31,1.49 11.31,0.99 11.31,0.49 11.47,0.02 11.63,-0.45 11.93,-0.84 12.23,-1.24 12.65,-1.52 13.06,-1.80 13.54,-1.93 14.02,-2.07 14.52,-2.04 15.02,-2.01 15.48,-1.83 15.94,-1.64 16.33,-1.32 16.71,-1.00 16.96,-0.57 17.22,-0.14 17.33,0.34 17.43,0.82 17.38,1.32 17.32,1.82 17.11,2.27 16.90,2.72 16.56,3.08 16.22,3.45 15.78,3.68 15.34,3.91 14.84,3.99 14.35,4.07 14.35,4.07 14.35,4.07 12.75,4.06 11.14,4.04 9.47,3.94 7.80,3.85 6.63,3.67 5.45,3.50 4.07,3.13 2.68,2.75 1.27,2.69 -0.13,2.64 -0.44,2.58 -0.76,2.53 -1.05,2.40 -1.34,2.27 -1.59,2.08 -1.85,1.88 -2.05,1.63 -2.24,1.39 -2.38,1.10 -2.51,0.81 -2.57,0.49 -2.63,0.18 -2.62,-0.13 -2.60,-0.45 -2.51,-0.75 -2.42,-1.06 -2.26,-1.33 -2.09,-1.61 -1.87,-1.83 -1.65,-2.06 -1.38,-2.23 -1.10,-2.40 -0.80,-2.49 -0.50,-2.59 -0.18,-2.61 0.13,-2.64 0.13,-2.64 L 0.13,-2.64 Z"></path></g></svg>